<?xml version="1.0" encoding="UTF-8"?>
<svg width="158px" height="51px" viewBox="0 0 158 51" version="1.1" xmlns="http://www.w3.org/2000/svg" xmlns:xlink="http://www.w3.org/1999/xlink">
    <title>logo-nav</title>
    <g id="Symbols" stroke="none" stroke-width="1" fill="none" fill-rule="evenodd">
        <g id="nav-orolia" transform="translate(-81.000000, -21.000000)">
            <g id="logo-nav" transform="translate(81.201636, 21.000000)">
                <polygon id="Fill-485" fill="#1E4485" points="79.7983638 40 84.7983638 40 84.7983638 8 79.7983638 8"></polygon>
                <polygon id="Fill-486" fill="#1E4485" points="89.7983638 40 94.7983638 40 94.7983638 16 89.7983638 16"></polygon>
                <path d="M108.313451,5.33885098 C106.731978,6.97182563 107.018752,10.0615348 108.75767,13.9154101 C108.077285,13.9980226 107.412363,14.1136802 106.774151,14.2665134 C102.864749,8.20137569 101.742958,3.35614989 103.834719,1.18068618 C107.512172,-2.62362154 119.947471,3.06975973 131.592736,13.8864957 C132.35606,14.570803 133.087052,15.290909 133.798364,16 C122.851758,6.52434101 111.751925,1.77825026 108.313451,5.33885098" id="Fill-487" fill="#1E4485"></path>
                <path d="M14.296936,36.0774401 C9.27959068,36.0774401 5.21317079,33.4798644 5.21317079,27.9965531 C5.21317079,22.5091055 9.27959068,19.9184236 14.296936,19.9184236 C19.3171369,19.9184236 23.3792734,22.5091055 23.3792734,27.9965531 C23.3792734,33.4798644 19.3171369,36.0774401 14.296936,36.0774401 M14.296936,16 C6.84516445,16 0.798363811,19.8453496 0.798363811,27.9965531 C0.798363811,36.1436204 6.84516445,40 14.296936,40 C21.752991,40 27.7983638,36.1436204 27.7983638,27.9965531 C27.7983638,19.8453496 21.752991,16 14.296936,16" id="Fill-490" fill="#1E4485"></path>
                <path d="M61.7935503,36.0774401 C56.9607547,36.0774401 53.0411567,33.4798644 53.0411567,27.9965531 C53.0411567,22.5091055 56.9607547,19.9184236 61.7935503,19.9184236 C66.6290964,19.9184236 70.5486944,22.5091055 70.5486944,27.9965531 C70.5486944,33.4798644 66.6290964,36.0774401 61.7935503,36.0774401 M61.7935503,16 C54.6144971,16 48.7983638,19.8453496 48.7983638,27.9965531 C48.7983638,36.1436204 54.6144971,40 61.7935503,40 C68.975354,40 74.7983638,36.1436204 74.7983638,27.9965531 C74.7983638,19.8453496 68.975354,16 61.7935503,16" id="Fill-492" fill="#F47424"></path>
                <path d="M111.670309,35.9891997 C106.935737,35.9891997 103.095473,33.4219567 103.095473,27.9965531 C103.095473,22.568392 106.935737,20.0039065 111.670309,20.0039065 C116.411803,20.0039065 120.242376,22.568392 120.242376,27.9965531 C120.242376,33.4219567 116.411803,35.9891997 111.670309,35.9891997 L111.670309,35.9891997 Z M120.270064,16.0965129 L120.270064,18.5396679 C117.988609,16.8300109 114.976203,16 111.670309,16 C104.557376,16 98.7983638,19.8453496 98.7983638,27.9965531 C98.7983638,36.1436204 104.557376,40 111.670309,40 C114.976203,40 117.988609,39.1617166 120.270064,37.4534383 L120.270064,39.5312231 L124.798364,39.5312231 L124.798364,16.0965129 L120.270064,16.0965129 Z" id="Fill-494" fill="#1E4485"></path>
                <path d="M36.4612958,19.3985792 L36.4612958,16.47907 L31.7983638,16.47907 L31.7983638,40 L36.4612958,40 L36.4612958,29.5464099 C36.4612958,23.1465978 41.0900463,20.1270475 46.7983638,20.1242294 L46.7983638,16 C42.6025795,16 39.0548203,17.2329008 36.4612958,19.3985792" id="Fill-496" fill="#1E4485"></path>
                <path d="M145.46102,27.2823791 L145.46102,27.2823791 L145.438529,27.2671239 C145.423067,27.2463213 145.403387,27.2282924 145.383708,27.2074898 L145.383708,27.2102635 L143.026382,24.8429299 C142.556885,24.378339 142.084576,23.913748 141.593994,23.4574781 C141.463265,23.3243416 141.31848,23.1953656 141.180724,23.0663896 C140.983928,22.873619 140.78151,22.6780748 140.588932,22.4977857 C140.039311,21.9846554 139.474228,21.489554 138.911956,21 C139.48969,21.5727644 140.043528,22.1483024 140.588932,22.7169063 C140.816652,22.9623767 141.037344,23.209234 141.260847,23.4574781 C141.714882,23.9428716 142.153454,24.4324257 142.575158,24.9233666 L144.772237,27.4557339 C151.170894,35.4841429 154.011774,42.7803011 151.281942,45.6247072 C147.843648,49.2152324 136.742991,44.4292522 125.798364,34.8919628 C126.515261,35.6020242 127.23778,36.3148593 127.995442,37.022147 C139.648532,47.9199251 152.085992,53.6434083 155.768874,49.8074126 C158.982259,46.4623577 154.433478,36.9111999 145.46102,27.2823791" id="Fill-498" fill="#F47424"></path>
                <polygon id="Fill-489" fill="#1E4485" points="89.7983638 13 94.7983638 13 94.7983638 7 89.7983638 7"></polygon>
            </g>
        </g>
    </g>
</svg>